{"title":"Weekend.Pass.1984.DVDRip.XViD-SPRiNTER","uid":6767392,"size":736152557,"categoryP":"video","categoryS":"movies","magnet":"?xt=urn:btih:ec86a181d09dab5e9580ae55459c6654bc38fb7f&amp;dn=Weekend.Pass.1984.DVDRip.XViD-SPRiNTER&amp;tr=udp%3A%2F%2Ftracker.openbittorrent.com%3A80&amp;tr=udp%3A%2F%2Fopen.demonii.com%3A1337&amp;tr=udp%3A%2F%2Ftracker.coppersurfer.tk%3A6969&amp;tr=udp%3A%2F%2Fexodus.desync.com%3A6969","seeders":0,"leechers":1,"uploader":"LegendET","files":5,"time":1319449713,"description":"\nARTiCHOKE\n\nSPRiNTER proudly presents\n\nWeekend.Pass.1984.DVDRip.XViD-SPRiNTER &lt;a href=&quot;\nhttp://www.imdb.com/title/tt0088385/&quot; rel=&quot;nofollow&quot; target=&quot;_NEW&quot;&gt;\nhttp://www.imdb.com/title/tt0088385/&lt;/a&gt;\nDate: 2011.10\n\nRelease notes\n\nEnjoy!\n\nGreetings\n\nNTX FiCO HNR CiNEFiLE AEN HUMANiSM TASTE 0MNiDVD\n\nDetails\n\nFormat: AVI\nFormat/Info: Audio Video Interleave\nFile size: 697 MiB\nDuration: 1h 29mn\nOverall bit rate: 1 094 Kbps\nWriting application: Nandub v1.0rc2\nWriting library: Nandub build 1853/release\n\nVideo\nID: 0\nFormat: MPEG-4 Visual\nFormat profile: Advanced Simple@L5\nFormat settings, BVOP: No\nFormat settings, QPel: No\nFormat settings, GMC: No warppoints\nFormat settings, Matrix: Default (H.263)\nCodec ID: XVID\nCodec ID/Hint: XviD\nDuration: 1h 29mn\nBit rate: 1 009 Kbps\nWidth: 576 pixels\nHeight: 320 pixels\nDisplay aspect ratio: 16:9\nFrame rate: 23.976 fps\nColor space: YUV\nChroma subsampling: 4:2:0\nBit depth: 8 bits\nScan type: Progressive\nCompression mode: Lossy\nBits/(Pixel*Frame): 0.228\nStream size: 643 MiB (92%)\nWriting library: XviD 61\n\nAudio\nID: 1\nFormat: MPEG Audio\nFormat version: Version 1\nFormat profile: Layer 3\nCodec ID: 55\nCodec ID/Hint: MP3\nDuration: 1h 29mn\nBit rate mode: Variable\nBit rate: 72.3 Kbps\nChannel(s): 1 channel\nSampling rate: 48.0 KHz\nCompression mode: Lossy\nStream size: 46.1 MiB (7%)\nAlignment: Aligned on interleaves\nInterleave, duration: 24 ms (0.58 video frame)\nInterleave, preload duration: 369 ms\nWriting library: LAME3.89 (alpha)\n &lt;a href=&quot;\nhttp://www.shotpix.com/images/54260434367059002105.jpg&quot; rel=&quot;nofollow&quot; target=&quot;_NEW&quot;&gt;\nhttp://www.shotpix.com/images/54260434367059002105.jpg&lt;/a&gt; &lt;a href=&quot;\nhttp://www.shotpix.com/images/00613163193798124471.jpg&quot; rel=&quot;nofollow&quot; target=&quot;_NEW&quot;&gt;\nhttp://www.shotpix.com/images/00613163193798124471.jpg&lt;/a&gt;\n &lt;a href=&quot;\nhttp://www.shotpix.com/images/81957653915318170160.jpg&quot; rel=&quot;nofollow&quot; target=&quot;_NEW&quot;&gt;\nhttp://www.shotpix.com/images/81957653915318170160.jpg&lt;/a&gt;\n","torrent":{"xt":"urn:btih:ec86a181d09dab5e9580ae55459c6654bc38fb7f","amp;dn":"Weekend.Pass.1984.DVDRip.XViD-SPRiNTER","amp;tr":["udp%3A%2F%2Ftracker.openbittorrent.com%3A80","udp%3A%2F%2Fopen.demonii.com%3A1337","udp%3A%2F%2Ftracker.coppersurfer.tk%3A6969","udp%3A%2F%2Fexodus.desync.com%3A6969"],"infoHash":"ec86a181d09dab5e9580ae55459c6654bc38fb7f","infoHashBuffer":{"type":"Buffer","data":[236,134,161,129,208,157,171,94,149,128,174,85,69,156,102,84,188,56,251,127]},"announce":[],"urlList":[]}}